<svg width="32" height="32" viewBox="0 0 32 32" fill="none" xmlns="http://www.w3.org/2000/svg">
<g clip-path="url(#clip0_337_386)">
<rect width="32" height="32" rx="6" fill="#C2185B"/>
<path fill-rule="evenodd" clip-rule="evenodd" d="M29 0H3C1.35 0 0 1.35 0 3V29C0 30.65 1.35 32 3 32H29C30.65 32 32 30.65 32 29V3C32 1.35 30.65 0 29 0ZM16 27.5254C9.6438 27.5254 4.47465 22.3568 4.47465 16C4.47465 9.64325 9.64265 4.47465 16 4.47465C22.3562 4.47465 27.5254 9.64265 27.5254 16C27.5254 22.3574 22.3568 27.5254 16 27.5254ZM25.72 17.5762C25.3834 17.4687 22.671 16.6632 19.5883 17.1569C20.8763 20.6949 21.3977 23.5769 21.5016 24.1763C23.7074 22.6828 25.2836 20.3176 25.72 17.5762ZM19.8457 25.0769C19.6969 24.2118 19.1288 21.204 17.7481 17.6123C17.7251 17.6211 17.7032 17.6258 17.6843 17.6352C12.1301 19.5711 10.134 23.421 9.95975 23.7813C11.6299 25.0823 13.7287 25.8617 16.0018 25.8617C17.3666 25.8617 18.6676 25.5819 19.8475 25.0781L19.8457 25.0769ZM8.68415 22.5954C8.90915 22.2121 11.6104 17.7422 16.6839 16.0992C16.8109 16.0597 16.9402 16.0189 17.0719 15.9829C16.8239 15.4242 16.5545 14.8626 16.2746 14.3134C11.3641 15.7851 6.5906 15.7219 6.1589 15.7178C6.15415 15.817 6.15415 15.9167 6.15415 16.0189C6.15415 18.5441 7.11325 20.8538 8.68415 22.5971V22.5954ZM6.36565 13.9968C6.80675 14.001 10.8639 14.0187 15.4697 12.7986C13.8409 9.89895 12.0799 7.45995 11.8189 7.10445C9.0627 8.40485 7.00105 10.9449 6.3668 13.9969H6.3656L6.36565 13.9968ZM13.6956 6.44295C13.9661 6.80675 15.7566 9.24395 17.3689 12.2056C20.8709 10.8958 22.3521 8.8997 22.528 8.6481C20.7906 7.1044 18.5034 6.16715 16.0005 6.16715C15.2243 6.17098 14.451 6.2631 13.6956 6.44175V6.44295H13.6956ZM23.6229 9.79205C23.4151 10.0714 21.7621 12.1885 18.1248 13.6732C18.3534 14.1415 18.5748 14.6187 18.7774 15.1012C18.8494 15.2724 18.9215 15.4384 18.9894 15.6091C22.2664 15.201 25.5216 15.8577 25.8458 15.9244C25.8234 13.6023 24.9901 11.4674 23.6218 9.79265L23.623 9.79205H23.6229Z" fill="#EC407A"/>
</g>
<defs>
<clipPath id="clip0_337_386">
<rect width="32" height="32" rx="6" fill="white"/>
</clipPath>
</defs>
</svg>
