<svg width="116" height="116" viewBox="0 0 116 116" fill="none" xmlns="http://www.w3.org/2000/svg">
<g filter="url(#filter0_d_29_962)">
<rect x="31" y="27" width="54" height="54" rx="27" stroke="white" stroke-width="2" shape-rendering="crispEdges"/>
</g>
<g clip-path="url(#clip0_29_962)">
<path d="M69.4964 55.925L60.925 64.4964C60.5929 64.8339 60.1536 65 59.7143 65C59.275 65 58.8368 64.8326 58.5025 64.4978C57.8329 63.8281 57.8329 62.7433 58.5025 62.0737L64.15 56.4286H47.7143C46.7677 56.4286 46.0001 55.6625 46.0001 54.7143C46.0001 53.7661 46.7677 53 47.7143 53H64.15L58.5036 47.3536C57.8339 46.6839 57.8339 45.5991 58.5036 44.9295C59.1732 44.2598 60.258 44.2598 60.9277 44.9295L69.4991 53.5009C70.1661 54.1732 70.1661 55.2554 69.4964 55.925Z" fill="white"/>
</g>
<defs>
<filter id="filter0_d_29_962" x="7.62939e-06" y="0" width="116" height="116" filterUnits="userSpaceOnUse" color-interpolation-filters="sRGB">
<feFlood flood-opacity="0" result="BackgroundImageFix"/>
<feColorMatrix in="SourceAlpha" type="matrix" values="0 0 0 0 0 0 0 0 0 0 0 0 0 0 0 0 0 0 127 0" result="hardAlpha"/>
<feMorphology radius="10" operator="dilate" in="SourceAlpha" result="effect1_dropShadow_29_962"/>
<feOffset dy="4"/>
<feGaussianBlur stdDeviation="10"/>
<feComposite in2="hardAlpha" operator="out"/>
<feColorMatrix type="matrix" values="0 0 0 0 0 0 0 0 0 0 0 0 0 0 0 0 0 0 0.1 0"/>
<feBlend mode="normal" in2="BackgroundImageFix" result="effect1_dropShadow_29_962"/>
<feBlend mode="normal" in="SourceGraphic" in2="effect1_dropShadow_29_962" result="shape"/>
</filter>
<clipPath id="clip0_29_962">
<rect width="24" height="27.4286" fill="white" transform="translate(46 41)"/>
</clipPath>
</defs>
</svg>
