<svg width="32" height="32" viewBox="0 0 32 32" fill="none" xmlns="http://www.w3.org/2000/svg">
<g clip-path="url(#clip0_337_392)">
<path d="M8.11451 31.8867C6.87677 31.8729 5.65068 31.6459 4.49004 31.2157C3.64249 30.9024 2.87567 30.4036 2.24565 29.7559C1.59616 29.1272 1.09668 28.3601 0.784314 27.5118C0.354432 26.3512 0.127743 25.1253 0.114196 23.8877C0.0191373 21.8303 0 21.2132 0 16C0 10.7868 0.0210196 10.1719 0.113255 8.11294C0.128446 6.87585 0.355414 5.6505 0.784314 4.49004C1.09821 3.64235 1.59698 2.87523 2.24439 2.24439C2.87364 1.59549 3.64082 1.09648 4.4891 0.784314C5.64973 0.354076 6.87583 0.127068 8.11357 0.113255C10.1716 0.0191373 10.7896 0 16 0C21.2104 0 21.8281 0.0210196 23.8871 0.113255C25.1245 0.128339 26.3501 0.355308 27.5109 0.784314C28.3588 1.09689 29.1258 1.59573 29.7553 2.24408C30.4038 2.8738 30.9029 3.64097 31.2157 4.4891C31.646 5.64972 31.8731 6.87581 31.8871 8.11357C31.9812 10.1725 32.0003 10.789 32.0003 16.0006C32.0003 21.2122 31.9812 21.8287 31.8871 23.8877C31.8721 25.1252 31.645 26.3511 31.2157 27.5118C30.8909 28.3536 30.3935 29.1181 29.7554 29.756C29.1173 30.3939 28.3528 30.8911 27.5109 31.2157C26.3503 31.646 25.1242 31.8731 23.8864 31.8871C21.8293 31.9812 21.211 32.0003 15.9994 32.0003C10.7878 32.0003 10.1713 31.9821 8.1142 31.8871" fill="url(#paint0_radial_337_392)"/>
<path d="M8.11451 31.8867C6.87677 31.8729 5.65068 31.6459 4.49004 31.2157C3.64249 30.9024 2.87567 30.4036 2.24565 29.7559C1.59616 29.1272 1.09668 28.3601 0.784314 27.5118C0.354432 26.3512 0.127743 25.1253 0.114196 23.8877C0.0191373 21.8303 0 21.2132 0 16C0 10.7868 0.0210196 10.1719 0.113255 8.11294C0.128446 6.87585 0.355414 5.6505 0.784314 4.49004C1.09821 3.64235 1.59698 2.87523 2.24439 2.24439C2.87364 1.59549 3.64082 1.09648 4.4891 0.784314C5.64973 0.354076 6.87583 0.127068 8.11357 0.113255C10.1716 0.0191373 10.7896 0 16 0C21.2104 0 21.8281 0.0210196 23.8871 0.113255C25.1245 0.128339 26.3501 0.355308 27.5109 0.784314C28.3588 1.09689 29.1258 1.59573 29.7553 2.24408C30.4038 2.8738 30.9029 3.64097 31.2157 4.4891C31.646 5.64972 31.8731 6.87581 31.8871 8.11357C31.9812 10.1725 32.0003 10.789 32.0003 16.0006C32.0003 21.2122 31.9812 21.8287 31.8871 23.8877C31.8721 25.1252 31.645 26.3511 31.2157 27.5118C30.8909 28.3536 30.3935 29.1181 29.7554 29.756C29.1173 30.3939 28.3528 30.8911 27.5109 31.2157C26.3503 31.646 25.1242 31.8731 23.8864 31.8871C21.8293 31.9812 21.211 32.0003 15.9994 32.0003C10.7878 32.0003 10.1713 31.9821 8.1142 31.8871" fill="url(#paint1_radial_337_392)"/>
<path d="M12.0712 16.068C12.0713 15.2843 12.3038 14.5181 12.7393 13.8665C13.1747 13.2149 13.7937 12.707 14.5178 12.4072C15.2419 12.1073 16.0387 12.0289 16.8074 12.1819C17.5761 12.3349 18.2821 12.7124 18.8362 13.2666C19.3904 13.8209 19.7677 14.5271 19.9205 15.2958C20.0733 16.0645 19.9947 16.8613 19.6947 17.5853C19.3947 18.3094 18.8867 18.9282 18.2349 19.3635C17.5832 19.7988 16.817 20.0311 16.0333 20.031C14.9824 20.0309 13.9745 19.6132 13.2315 18.87C12.4885 18.1268 12.0711 17.1189 12.0712 16.068ZM9.92879 16.068C9.92879 17.2754 10.2868 18.4556 10.9576 19.4595C11.6283 20.4634 12.5817 21.2458 13.6972 21.7078C14.8126 22.1699 16.04 22.2908 17.2242 22.0552C18.4083 21.8197 19.4961 21.2383 20.3498 20.3845C21.2035 19.5308 21.7849 18.4431 22.0204 17.259C22.256 16.0748 22.1351 14.8474 21.6731 13.732C21.211 12.6165 20.4286 11.6631 19.4247 10.9924C18.4208 10.3216 17.2406 9.96356 16.0333 9.96356C15.2316 9.96352 14.4378 10.1214 13.6971 10.4282C12.9565 10.7349 12.2835 11.1846 11.7167 11.7514C11.1498 12.3183 10.7002 12.9913 10.3934 13.7319C10.0866 14.4726 9.92875 15.2664 9.92879 16.068ZM20.9528 9.72168C20.9527 10.0038 21.0362 10.2797 21.1929 10.5143C21.3495 10.749 21.5722 10.9319 21.8328 11.04C22.0934 11.1481 22.3802 11.1765 22.657 11.1215C22.9337 11.0666 23.188 10.9309 23.3876 10.7314C23.5871 10.532 23.7231 10.2779 23.7783 10.0012C23.8334 9.72453 23.8053 9.4377 23.6975 9.17699C23.5896 8.91628 23.4069 8.69341 23.1723 8.53656C22.9378 8.37971 22.6621 8.29593 22.3799 8.2958C22.0018 8.29597 21.6391 8.44623 21.3716 8.71358C21.1042 8.98093 20.9537 9.34351 20.9534 9.72168M11.2311 25.7449C10.4772 25.7366 9.73042 25.5987 9.02337 25.3371C8.51062 25.1394 8.04492 24.8366 7.65626 24.4481C7.26761 24.0596 6.9646 23.594 6.76675 23.0814C6.50503 22.3744 6.36707 21.6275 6.35891 20.8737C6.30119 19.6207 6.28989 19.2442 6.28989 16.0696C6.28989 12.895 6.30244 12.5195 6.35891 11.2652C6.36806 10.5115 6.50599 9.7648 6.76675 9.05752C6.96437 8.5446 7.26729 8.07879 7.65597 7.69011C8.04465 7.30144 8.51046 6.99852 9.02337 6.8009C9.73039 6.53918 10.4772 6.40122 11.2311 6.39306C12.4841 6.33533 12.8606 6.32404 16.0339 6.32404C19.2072 6.32404 19.584 6.33627 20.8383 6.39337C21.592 6.40252 22.3387 6.54045 23.046 6.80121C23.5589 6.99885 24.0247 7.30177 24.4134 7.69045C24.802 8.07912 25.105 8.54493 25.3026 9.05784C25.5643 9.76486 25.7023 10.5117 25.7104 11.2655C25.7682 12.5204 25.7795 12.895 25.7795 16.0699C25.7795 19.2448 25.7678 19.62 25.7104 20.8743C25.7017 21.6281 25.5637 22.3748 25.3026 23.082C25.1047 23.5947 24.8017 24.0602 24.4131 24.4487C24.0244 24.8372 23.5587 25.14 23.046 25.3377C22.339 25.5994 21.5921 25.7374 20.8383 25.7455C19.5853 25.8033 19.2088 25.8145 16.0339 25.8145C12.859 25.8145 12.4838 25.8029 11.2311 25.7455M11.1326 4.25251C10.1462 4.2719 9.17019 4.4586 8.24628 4.80466C7.45648 5.11003 6.7392 5.57707 6.14044 6.17584C5.54167 6.7746 5.07463 7.49188 4.76926 8.28168C4.42325 9.20561 4.23655 10.1816 4.21711 11.168C4.15844 12.4354 4.14526 12.8407 4.14526 16.0693C4.14526 19.2978 4.15876 19.7029 4.21711 20.9706C4.23654 21.957 4.42324 22.933 4.76926 23.8569C5.07465 24.6467 5.54169 25.364 6.14046 25.9627C6.73922 26.5615 7.45649 27.0285 8.24628 27.3339C9.17024 27.6798 10.1462 27.8665 11.1326 27.8861C12.4006 27.9438 12.8053 27.9579 16.0339 27.9579C19.2624 27.9579 19.6675 27.9444 20.9352 27.8861C21.9216 27.8666 22.8976 27.6799 23.8215 27.3339C24.6113 27.0285 25.3286 26.5615 25.9273 25.9627C26.5261 25.364 26.9931 24.6467 27.2985 23.8569C27.645 22.9331 27.8317 21.9571 27.8507 20.9706C27.9084 19.7022 27.9216 19.2978 27.9216 16.0693C27.9216 12.8407 27.9081 12.4357 27.8507 11.168C27.8313 10.1816 27.6446 9.20559 27.2985 8.28168C26.9931 7.49203 26.5262 6.77486 25.9276 6.17612C25.329 5.57737 24.612 5.11024 23.8224 4.80466C22.8986 4.45838 21.9226 4.27167 20.9362 4.25251C19.6684 4.19447 19.2634 4.18066 16.0355 4.18066C12.8075 4.18066 12.4016 4.19416 11.1332 4.25251" fill="white"/>
</g>
<defs>
<radialGradient id="paint0_radial_337_392" cx="0" cy="0" r="1" gradientUnits="userSpaceOnUse" gradientTransform="translate(2.0709 31.2991) scale(40.6281)">
<stop offset="0.09" stop-color="#FA8F21"/>
<stop offset="0.78" stop-color="#D82D7E"/>
</radialGradient>
<radialGradient id="paint1_radial_337_392" cx="0" cy="0" r="1" gradientUnits="userSpaceOnUse" gradientTransform="translate(22.1653 30.2714) scale(35.7531)">
<stop offset="0.64" stop-color="#8C3AAA" stop-opacity="0"/>
<stop offset="1" stop-color="#8C3AAA"/>
</radialGradient>
<clipPath id="clip0_337_392">
<rect width="32" height="32" fill="white"/>
</clipPath>
</defs>
</svg>
