<svg width="32" height="32" viewBox="0 0 32 32" fill="none" xmlns="http://www.w3.org/2000/svg">
<g clip-path="url(#clip0_337_388)">
<path d="M30.2222 0H1.77778C0.795938 0 0 0.795938 0 1.77778V30.2222C0 31.2041 0.795938 32 1.77778 32H30.2222C31.2041 32 32 31.2041 32 30.2222V1.77778C32 0.795938 31.2041 0 30.2222 0Z" fill="#117EB8"/>
<path fill-rule="evenodd" clip-rule="evenodd" d="M5.8395 12.377H10.1164V26.1379H5.8395V12.377ZM7.97861 5.53658C9.34616 5.53658 10.4573 6.64769 10.4573 8.01524C10.4573 9.38413 9.34616 10.4957 7.97861 10.4957C7.64904 10.5019 7.32153 10.4424 7.01523 10.3206C6.70894 10.1988 6.42999 10.0171 6.19471 9.78628C5.95943 9.55541 5.77254 9.27996 5.64496 8.97602C5.51737 8.67208 5.45166 8.34576 5.45166 8.01613C5.45166 7.6865 5.51737 7.36018 5.64496 7.05624C5.77254 6.75231 5.95943 6.47685 6.19471 6.24599C6.42999 6.01512 6.70894 5.83347 7.01523 5.71167C7.32153 5.58986 7.64904 5.53034 7.97861 5.53658ZM12.7991 12.3766H16.9013V14.257H16.9582C17.5293 13.1752 18.9244 12.0348 21.0048 12.0348C25.3355 12.0348 26.1355 14.885 26.1355 18.5904V26.1379H21.8613V19.4459C21.8613 17.8504 21.8319 15.7975 19.6391 15.7975C17.4137 15.7975 17.0719 17.5357 17.0719 19.3308V26.1379H12.7986V12.377L12.7991 12.3766Z" fill="white"/>
</g>
<defs>
<clipPath id="clip0_337_388">
<rect width="32" height="32" fill="white"/>
</clipPath>
</defs>
</svg>
