<svg width="40" height="41" viewBox="0 0 40 41" fill="none" xmlns="http://www.w3.org/2000/svg">
<rect y="0.5" width="40" height="40" rx="20" fill="#E2EBFF"/>
<path d="M22 17.25H18C17.536 17.2495 17.0912 17.0649 16.7631 16.7369C16.4351 16.4088 16.2505 15.964 16.25 15.5V11.5C16.2505 11.036 16.4351 10.5912 16.7631 10.2631C17.0912 9.93507 17.536 9.75053 18 9.75H22C22.464 9.75053 22.9088 9.93507 23.2369 10.2631C23.5649 10.5912 23.7495 11.036 23.75 11.5V15.5C23.7495 15.964 23.5649 16.4088 23.2369 16.7369C22.9088 17.0649 22.464 17.2495 22 17.25ZM18 11.25C17.9337 11.25 17.8701 11.2763 17.8232 11.3232C17.7763 11.3701 17.75 11.4337 17.75 11.5V15.5C17.75 15.5663 17.7763 15.6299 17.8232 15.6768C17.8701 15.7237 17.9337 15.75 18 15.75H22C22.0663 15.75 22.1299 15.7237 22.1768 15.6768C22.2237 15.6299 22.25 15.5663 22.25 15.5V11.5C22.25 11.4337 22.2237 11.3701 22.1768 11.3232C22.1299 11.2763 22.0663 11.25 22 11.25H18ZM15 31.25H11C10.536 31.2495 10.0912 31.0649 9.76315 30.7369C9.43507 30.4088 9.25053 29.964 9.25 29.5V25.5C9.25053 25.036 9.43507 24.5912 9.76315 24.2631C10.0912 23.9351 10.536 23.7505 11 23.75H15C15.464 23.7505 15.9088 23.9351 16.2369 24.2631C16.5649 24.5912 16.7495 25.036 16.75 25.5V29.5C16.7495 29.964 16.5649 30.4088 16.2369 30.7369C15.9088 31.0649 15.464 31.2495 15 31.25ZM11 25.25C10.9337 25.25 10.8701 25.2763 10.8232 25.3232C10.7763 25.3701 10.75 25.4337 10.75 25.5V29.5C10.75 29.5663 10.7763 29.6299 10.8232 29.6768C10.8701 29.7237 10.9337 29.75 11 29.75H15C15.0663 29.75 15.1299 29.7237 15.1768 29.6768C15.2237 29.6299 15.25 29.5663 15.25 29.5V25.5C15.25 25.4337 15.2237 25.3701 15.1768 25.3232C15.1299 25.2763 15.0663 25.25 15 25.25H11ZM29 31.25H25C24.536 31.2495 24.0912 31.0649 23.7631 30.7369C23.4351 30.4088 23.2505 29.964 23.25 29.5V25.5C23.2505 25.036 23.4351 24.5912 23.7631 24.2631C24.0912 23.9351 24.536 23.7505 25 23.75H29C29.464 23.7505 29.9088 23.9351 30.2369 24.2631C30.5649 24.5912 30.7495 25.036 30.75 25.5V29.5C30.7495 29.964 30.5649 30.4088 30.2369 30.7369C29.9088 31.0649 29.464 31.2495 29 31.25ZM25 25.25C24.9337 25.25 24.8701 25.2763 24.8232 25.3232C24.7763 25.3701 24.75 25.4337 24.75 25.5V29.5C24.75 29.5663 24.7763 29.6299 24.8232 29.6768C24.8701 29.7237 24.9337 29.75 25 29.75H29C29.0663 29.75 29.1299 29.7237 29.1768 29.6768C29.2237 29.6299 29.25 29.5663 29.25 29.5V25.5C29.25 25.4337 29.2237 25.3701 29.1768 25.3232C29.1299 25.2763 29.0663 25.25 29 25.25H25ZM27 23.25C26.8011 23.25 26.6103 23.171 26.4697 23.0303C26.329 22.8897 26.25 22.6989 26.25 22.5V21.5C26.25 21.4337 26.2237 21.3701 26.1768 21.3232C26.1299 21.2763 26.0663 21.25 26 21.25H14C13.9337 21.25 13.8701 21.2763 13.8232 21.3232C13.7763 21.3701 13.75 21.4337 13.75 21.5V22.5C13.75 22.6989 13.671 22.8897 13.5303 23.0303C13.3897 23.171 13.1989 23.25 13 23.25C12.8011 23.25 12.6103 23.171 12.4697 23.0303C12.329 22.8897 12.25 22.6989 12.25 22.5V21.5C12.2505 21.036 12.4351 20.5912 12.7631 20.2631C13.0912 19.9351 13.536 19.7505 14 19.75H26C26.464 19.7505 26.9088 19.9351 27.2369 20.2631C27.5649 20.5912 27.7495 21.036 27.75 21.5V22.5C27.75 22.6989 27.671 22.8897 27.5303 23.0303C27.3897 23.171 27.1989 23.25 27 23.25Z" fill="#0956F1"/>
<path d="M20 21.25C19.8011 21.25 19.6103 21.171 19.4697 21.0303C19.329 20.8897 19.25 20.6989 19.25 20.5V16.5C19.25 16.3011 19.329 16.1103 19.4697 15.9697C19.6103 15.829 19.8011 15.75 20 15.75C20.1989 15.75 20.3897 15.829 20.5303 15.9697C20.671 16.1103 20.75 16.3011 20.75 16.5V20.5C20.75 20.6989 20.671 20.8897 20.5303 21.0303C20.3897 21.171 20.1989 21.25 20 21.25Z" fill="#0956F1"/>
</svg>
