<svg width="40" height="41" viewBox="0 0 40 41" fill="none" xmlns="http://www.w3.org/2000/svg">
<rect y="0.5" width="40" height="40" rx="20" fill="#E2EBFF"/>
<path d="M17 11.5H27.5C28.3285 11.5 29 12.1716 29 13V22C29 22.8284 28.3285 23.5 27.5 23.5H20V25H23V26.5H20V28H25.25C25.6642 28 26 27.6642 26 27.25C26 26.8358 25.6642 26.5 25.25 26.5H24.5V25H27.5C29.1569 25 30.5 23.6569 30.5 22V13C30.5 11.3431 29.1569 10 27.5 10H17C15.3431 10 14 11.3431 14 13V16H15.5V13C15.5 12.1716 16.1716 11.5 17 11.5ZM13.25 26.5C12.8358 26.5 12.5 26.8358 12.5 27.25C12.5 27.6642 12.8358 28 13.25 28H14.75C15.1642 28 15.5 27.6642 15.5 27.25C15.5 26.8358 15.1642 26.5 14.75 26.5H13.25Z" fill="#0956F1"/>
<path d="M11.75 17.5C10.5074 17.5 9.5 18.5074 9.5 19.75V28.75C9.5 29.9926 10.5074 31 11.75 31H16.25C17.4926 31 18.5 29.9926 18.5 28.75V19.75C18.5 18.5074 17.4926 17.5 16.25 17.5H11.75ZM11.75 19H16.25C16.6642 19 17 19.3358 17 19.75V28.75C17 29.1642 16.6642 29.5 16.25 29.5H11.75C11.3358 29.5 11 29.1642 11 28.75V19.75C11 19.3358 11.3358 19 11.75 19Z" fill="#0956F1"/>
</svg>
