<svg width="40" height="40" viewBox="0 0 40 40" fill="none" xmlns="http://www.w3.org/2000/svg">
<rect width="40" height="40" rx="20" fill="#E2EBFF"/>
<path d="M17.1605 19.62C17.1305 19.62 17.1105 19.62 17.0805 19.62C17.0305 19.61 16.9605 19.61 16.9005 19.62C14.0005 19.53 11.8105 17.25 11.8105 14.44C11.8105 11.58 14.1405 9.25 17.0005 9.25C19.8605 9.25 22.1905 11.58 22.1905 14.44C22.1805 17.25 19.9805 19.53 17.1905 19.62C17.1805 19.62 17.1705 19.62 17.1605 19.62ZM17.0005 10.75C14.9705 10.75 13.3105 12.41 13.3105 14.44C13.3105 16.44 14.8705 18.05 16.8605 18.12C16.9205 18.11 17.0505 18.11 17.1805 18.12C19.1405 18.03 20.6805 16.42 20.6905 14.44C20.6905 12.41 19.0305 10.75 17.0005 10.75Z" fill="#0956F1"/>
<path d="M24.5404 19.75C24.5104 19.75 24.4804 19.75 24.4504 19.74C24.0404 19.78 23.6204 19.49 23.5804 19.08C23.5404 18.67 23.7904 18.3 24.2004 18.25C24.3204 18.24 24.4504 18.24 24.5604 18.24C26.0204 18.16 27.1604 16.96 27.1604 15.49C27.1604 13.97 25.9304 12.74 24.4104 12.74C24.0004 12.75 23.6604 12.41 23.6604 12C23.6604 11.59 24.0004 11.25 24.4104 11.25C26.7504 11.25 28.6604 13.16 28.6604 15.5C28.6604 17.8 26.8604 19.66 24.5704 19.75C24.5604 19.75 24.5504 19.75 24.5404 19.75Z" fill="#0956F1"/>
<path d="M17.1696 30.55C15.2096 30.55 13.2396 30.05 11.7496 29.05C10.3596 28.13 9.59961 26.87 9.59961 25.5C9.59961 24.13 10.3596 22.86 11.7496 21.93C14.7496 19.94 19.6096 19.94 22.5896 21.93C23.9696 22.85 24.7396 24.11 24.7396 25.48C24.7396 26.85 23.9796 28.12 22.5896 29.05C21.0896 30.05 19.1296 30.55 17.1696 30.55ZM12.5796 23.19C11.6196 23.83 11.0996 24.65 11.0996 25.51C11.0996 26.36 11.6296 27.18 12.5796 27.81C15.0696 29.48 19.2696 29.48 21.7596 27.81C22.7196 27.17 23.2396 26.35 23.2396 25.49C23.2396 24.64 22.7096 23.82 21.7596 23.19C19.2696 21.53 15.0696 21.53 12.5796 23.19Z" fill="#0956F1"/>
<path d="M26.3402 28.75C25.9902 28.75 25.6802 28.51 25.6102 28.15C25.5302 27.74 25.7902 27.35 26.1902 27.26C26.8202 27.13 27.4002 26.88 27.8502 26.53C28.4202 26.1 28.7302 25.56 28.7302 24.99C28.7302 24.42 28.4202 23.88 27.8602 23.46C27.4202 23.12 26.8702 22.88 26.2202 22.73C25.8202 22.64 25.5602 22.24 25.6502 21.83C25.7402 21.43 26.1402 21.17 26.5502 21.26C27.4102 21.45 28.1602 21.79 28.7702 22.26C29.7002 22.96 30.2302 23.95 30.2302 24.99C30.2302 26.03 29.6902 27.02 28.7602 27.73C28.1402 28.21 27.3602 28.56 26.5002 28.73C26.4402 28.75 26.3902 28.75 26.3402 28.75Z" fill="#0956F1"/>
</svg>
