<svg width="168" height="40" viewBox="0 0 168 40" fill="none" xmlns="http://www.w3.org/2000/svg">
<path d="M25.0492 3.59196L28.6411 2.55218L19.9448 36.4867L17.9125 38.2827L16.2583 36.9121L15.0295 38.8026L12.1937 37.3847L10.1142 38.9916L0 2.50492L2.41039 3.26112L3.40291 1.41788L5.8133 1.98503L8.46 1.18156L14.4623 23.7731L20.1811 1.60693L23.1114 0.992513L25.0492 3.59196ZM57.4713 30.7207L58.3693 33.4146C46.8845 41.7801 34.1708 40.2205 30.7207 31.4769C27.1287 22.2134 34.5962 6.09687 48.3969 0L49.5784 1.70145L51.9888 1.46514L54.2574 3.30838L53.4067 17.5344L51.1381 18.2906L49.5312 17.6762L48.066 18.8105L45.1358 18.3851L45.5139 11.4375C39.2752 17.3454 36.9593 24.0567 38.2354 28.074C39.3225 31.4769 46.6482 31.5241 53.3122 26.7979L55.9589 27.8849L55.5335 30.3426L57.4713 30.7207Z" fill="#0956F1"/>
<path d="M70.9043 34.9357V38.9116H68.3693V19.8859H72.3185C74.0797 19.8859 75.4939 21.3268 75.4939 23.0879V31.7603C75.4939 33.5214 74.0797 34.9357 72.3185 34.9357H70.9043ZM70.9043 22.4208V32.4007H72.3185C72.6921 32.4007 72.959 32.1338 72.959 31.7603V23.0879C72.959 22.7144 72.6921 22.4208 72.3185 22.4208H70.9043ZM83.8127 38.9649C81.8114 38.9649 80.2103 37.3372 80.2103 35.3626V23.3815C80.2103 21.4069 81.8114 19.8058 83.8127 19.8058C85.7873 19.8058 87.3883 21.4069 87.3883 23.3815V35.3626C87.3883 37.3372 85.7873 38.9649 83.8127 38.9649ZM83.8127 22.3408C83.2256 22.3408 82.772 22.8211 82.772 23.3815V35.3626C82.772 35.9496 83.2256 36.4033 83.8127 36.4033C84.373 36.4033 84.8533 35.9496 84.8533 35.3626V23.3815C84.8533 22.8211 84.373 22.3408 83.8127 22.3408ZM99.4161 38.9916H96.6944L95.2268 34.9623H94.6397V38.9916H92.1047V19.8859H96.0806C97.8418 19.8859 99.256 21.3001 99.256 23.0613V31.7869C99.256 32.9344 98.669 33.9217 97.7617 34.482L99.4161 38.9916ZM94.6397 22.4208V32.4274H96.0806C96.4275 32.4274 96.7211 32.1338 96.7211 31.7869V23.0613C96.7211 22.7144 96.4275 22.4208 96.0806 22.4208H94.6397ZM112.751 19.8325V22.3942H109.576V38.9649H107.014V22.3942H103.519V19.8325H112.751ZM123.739 26.4235V28.9317H119.976V38.8849H117.468V19.8859H123.685V22.4208H119.976V26.4235H123.739ZM132.057 38.9649C130.056 38.9649 128.455 37.3372 128.455 35.3626V23.3815C128.455 21.4069 130.056 19.8058 132.057 19.8058C134.032 19.8058 135.633 21.4069 135.633 23.3815V35.3626C135.633 37.3372 134.032 38.9649 132.057 38.9649ZM132.057 22.3408C131.47 22.3408 131.017 22.8211 131.017 23.3815V35.3626C131.017 35.9496 131.47 36.4033 132.057 36.4033C132.618 36.4033 133.098 35.9496 133.098 35.3626V23.3815C133.098 22.8211 132.618 22.3408 132.057 22.3408ZM142.858 36.43H146.54V38.9383H140.349V19.7791H142.858V36.43ZM153.791 19.8325V38.8315H151.257V19.8325H153.791ZM162.11 38.9649C160.109 38.9649 158.508 37.3372 158.508 35.3626V23.3815C158.508 21.4069 160.109 19.8058 162.11 19.8058C164.085 19.8058 165.686 21.4069 165.686 23.3815V35.3626C165.686 37.3372 164.085 38.9649 162.11 38.9649ZM162.11 22.3408C161.523 22.3408 161.07 22.8211 161.07 23.3815V35.3626C161.07 35.9496 161.523 36.4033 162.11 36.4033C162.671 36.4033 163.151 35.9496 163.151 35.3626V23.3815C163.151 22.8211 162.671 22.3408 162.11 22.3408Z" fill="#1B1C1E"/>
</svg>
