<svg width="1440" height="446" viewBox="0 0 1440 446" fill="none" xmlns="http://www.w3.org/2000/svg">
<g clip-path="url(#clip0_36_1238)">
<path d="M0 101L26.7 91.7002C53.3 82.3002 106.7 63.7002 160 71.2002C213.3 78.7002 266.7 112.3 320 133.3C373.3 154.3 426.7 162.7 480 137.8C533.3 113 586.7 55.0002 640 46.0002C693.3 37.0002 746.7 77.0002 800 97.5002C853.3 118 906.7 119 960 100C1013.3 81.0002 1066.7 42.0002 1120 21.3002C1173.3 0.700191 1226.7 -1.6998 1280 1.0002C1333.3 3.7002 1386.7 11.3002 1413.3 15.2002L1440 19.0002V446H1413.3C1386.7 446 1333.3 446 1280 446C1226.7 446 1173.3 446 1120 446C1066.7 446 1013.3 446 960 446C906.7 446 853.3 446 800 446C746.7 446 693.3 446 640 446C586.7 446 533.3 446 480 446C426.7 446 373.3 446 320 446C266.7 446 213.3 446 160 446C106.7 446 53.3 446 26.7 446H0L0 101Z" fill="#0956F1"/>
</g>
<defs>
<clipPath id="clip0_36_1238">
<rect width="1440" height="446" fill="white"/>
</clipPath>
</defs>
</svg>
