<?xml version="1.0" encoding="UTF-8"?>
<svg width="323px" height="339px" viewBox="0 0 323 339" version="1.1" xmlns="http://www.w3.org/2000/svg" xmlns:xlink="http://www.w3.org/1999/xlink">
    <!-- Generator: Sketch 53 (72520) - https://sketchapp.com -->
    <title>Alien</title>
    <desc>Created with Sketch.</desc>
    <g id="Page-1" stroke="none" stroke-width="1" fill="none" fill-rule="evenodd">
        <g id="Portfolio-Landing-Page" transform="translate(-1091.000000, -271.000000)">
            <g id="Header">
                <g id="Alien" transform="translate(1091.000000, 271.000000)">
                    <g id="Page-1">
                        <g id="Group-46">
                            <path d="M273.065518,141.070407 C273.065518,205.756873 247.327692,267.843242 201.491355,313.575329 C191.300376,323.755203 177.961794,328.846785 164.623212,328.846785 C151.284631,328.846785 137.946049,323.755203 127.751773,313.575329 C113.147559,299.02795 100.567039,282.785572 90.2310388,265.315552 C84.3379367,255.389106 79.1699367,245.064417 74.759998,234.417183 C62.6145388,205.105203 56.1776102,173.41364 56.1776102,141.070407 C56.1776102,111.182455 68.3230694,84.108533 87.9535592,64.509067 C107.580753,44.909601 134.692978,32.7813 164.623212,32.7813 C199.431406,32.7813 230.409743,49.1322903 250.218212,74.616533 C264.535682,92.9521544 273.065518,116.020611 273.065518,141.070407" id="Fill-2" fill="#E1EFFF"></path>
                            <path d="M277.005459,145.005111 C277.005459,209.691577 251.267633,271.777946 205.431296,317.510033 C195.240316,327.689907 181.901735,332.781489 168.563153,332.781489 C156.308929,332.781489 144.090959,328.483101 134.29549,319.929111 C129.740531,315.094247 125.403102,310.075072 121.316163,304.914373 C129.523,309.785441 138.741684,312.240722 147.993327,312.240722 C161.331908,312.240722 174.67049,307.152431 184.864765,296.972557 C230.701102,251.237179 256.438929,189.15081 256.438929,124.467635 C256.438929,101.833625 249.461469,80.825499 237.533541,63.4640913 C241.653439,66.2419165 245.555806,69.3093728 249.207684,72.6302563 C250.944633,74.5457709 252.56952,76.5304019 254.158153,78.5512369 C268.475622,96.8868583 277.005459,119.955315 277.005459,145.005111" id="Fill-4" fill="#FFFFFF"></path>
                            <path d="M120.604245,94.3713466 C100.977051,113.934609 88.8315918,141.008531 88.8315918,170.932686 C88.8315918,203.312123 95.2652245,235.003686 107.446939,264.315667 C115.614224,284.023745 126.352327,302.648997 139.509633,319.687861 C135.317224,317.413599 131.375306,314.451463 127.832194,310.916648 C115.254969,298.3539 104.157612,284.563512 94.721398,269.802201 C88.8315918,259.875754 83.6602959,249.551065 79.2503571,238.903832 C67.104898,209.591851 60.6712653,177.900288 60.6712653,145.557055 C60.6712653,115.669104 72.8167245,88.5951816 92.4439184,68.9957155 C112.074408,49.3962495 139.183337,37.2646573 169.113571,37.2646573 C203.925061,37.2646573 234.903398,53.6189388 254.711867,79.1031816 C238.083959,68.6698806 218.42051,62.6435796 197.273898,62.6435796 C167.307408,62.6435796 140.195184,74.7718806 120.604245,94.3713466" id="Fill-6" fill="#B9D7F9"></path>
                            <path d="M142.933433,213.335991 L132.089861,213.335991 C102.143147,213.335991 77.8687082,189.095846 77.8687082,159.191438 L77.8687082,148.363185 L88.7122796,148.363185 C118.658994,148.363185 142.933433,172.603331 142.933433,202.507739 L142.933433,213.335991 Z" id="Fill-8" fill="#A0C5EF"></path>
                            <path d="M84.4579082,154.944722 L84.4579082,159.19045 C84.4579082,185.415227 105.822051,206.75248 132.087224,206.75248 L136.342255,206.75248 L136.342255,202.506751 C136.342255,176.281975 114.978112,154.944722 88.7129388,154.944722 L84.4579082,154.944722 Z M142.934092,219.917528 L132.087224,219.917528 C98.554551,219.917528 71.2742347,192.675751 71.2742347,159.19045 L71.2742347,148.362198 C71.2742347,144.728645 74.2273776,141.779674 77.8660714,141.779674 L88.7129388,141.779674 C122.245612,141.779674 149.525929,169.02145 149.525929,202.506751 L149.525929,213.335004 C149.525929,216.971849 146.576082,219.917528 142.934092,219.917528 L142.934092,219.917528 Z" id="Fill-10" fill="#2D3666"></path>
                            <path d="M186.310685,213.335991 L197.154256,213.335991 C227.10097,213.335991 251.375409,189.095846 251.375409,159.191438 L251.375409,148.363185 L240.531838,148.363185 C210.585123,148.363185 186.310685,172.603331 186.310685,202.507739 L186.310685,213.335991 Z" id="Fill-12" fill="#A0C5EF"></path>
                            <path d="M192.901203,206.753138 L197.156234,206.753138 C223.421407,206.753138 244.78555,185.415885 244.78555,159.191109 L244.78555,154.945381 L240.530519,154.945381 C214.265346,154.945381 192.901203,176.282633 192.901203,202.50741 L192.901203,206.753138 Z M197.156234,219.918186 L186.309366,219.918186 C182.670672,219.918186 179.71753,216.969216 179.71753,213.335662 L179.71753,202.50741 C179.71753,169.022109 206.997846,141.780332 240.530519,141.780332 L251.377387,141.780332 C255.019377,141.780332 257.969223,144.726012 257.969223,148.362856 L257.969223,159.191109 C257.969223,192.67641 230.688907,219.918186 197.156234,219.918186 L197.156234,219.918186 Z" id="Fill-14" fill="#2D3666"></path>
                            <path d="M175.172788,284.80509 L154.072318,284.80509 C150.430329,284.80509 147.480482,281.856119 147.480482,278.222566 C147.480482,274.589013 150.430329,271.640042 154.072318,271.640042 L175.172788,271.640042 C178.811482,271.640042 181.764624,274.589013 181.764624,278.222566 C181.764624,281.856119 178.811482,284.80509 175.172788,284.80509" id="Fill-16" fill="#2D3666"></path>
                            <path d="M164.622223,39.3634951 C137.430897,39.3634951 111.857866,49.9449029 92.612999,69.1625825 C73.3681316,88.3835534 62.7717541,113.920456 62.7717541,141.070078 C62.7717541,172.393019 68.8527235,202.952388 80.8498663,231.899039 C85.1213765,242.213854 90.1839071,252.327903 95.8990296,261.958136 C106.030683,279.07599 118.307979,294.870757 132.407917,308.914573 C133.113244,309.625485 133.844938,310.323233 134.602999,310.961738 C142.981223,318.278214 153.61056,322.263932 164.622223,322.263932 C176.77757,322.263932 188.214407,317.524515 196.829938,308.921155 C241.090826,264.762291 266.472693,203.584311 266.472693,141.070078 C266.472693,118.218845 259.053581,96.6413301 245.022856,78.661165 C243.236468,76.3934854 241.799448,74.6787379 240.382203,73.1153883 C221.074713,51.6596505 193.468101,39.3634951 164.622223,39.3634951 M164.622223,335.428981 C150.416815,335.428981 136.705795,330.288029 126.013836,320.950718 C125.058019,320.150942 124.049468,319.189893 123.083764,318.228845 C108.212581,303.408291 95.2431418,286.728175 84.5544786,268.662437 C78.522948,258.502311 73.1769684,247.822165 68.668152,236.931379 C56.0085296,206.381883 49.5880806,174.127515 49.5880806,141.070078 C49.5880806,110.402097 61.5555602,81.560767 83.2921418,59.8548932 C105.025428,38.1523107 133.910856,26.1984466 164.622223,26.1984466 C197.202377,26.1984466 228.38506,40.0842816 250.171081,64.2980971 C251.763009,66.0490485 253.430744,68.0435534 255.401703,70.5482039 C271.274846,90.8816214 279.656366,115.26 279.656366,141.070078 C279.656366,207.05001 252.863846,271.624573 206.154091,318.232136 C195.046846,329.320398 180.300907,335.428981 164.622223,335.428981" id="Fill-18" fill="#2D3666"></path>
                            <path d="M299.928242,246.551409 C299.835956,246.653438 299.737079,246.752176 299.634905,246.844331 C299.737079,246.936486 299.835956,247.035224 299.928242,247.137253 C300.020528,247.035224 300.116109,246.936486 300.221579,246.844331 C300.116109,246.752176 300.020528,246.653438 299.928242,246.551409" id="Fill-20" fill="#9AE0E6"></path>
                            <path d="M299.928901,233.679612 C298.505064,233.679612 297.249319,234.581417 296.801074,235.930835 L294.849891,241.776117 L288.99634,243.721252 C287.648309,244.172155 286.745228,245.422835 286.745228,246.84466 C286.745228,248.266485 287.648309,249.517165 288.99634,249.964777 L294.849891,251.916495 L296.801074,257.758485 C297.249319,259.107903 298.505064,260.009709 299.928901,260.009709 C301.352738,260.009709 302.605187,259.107903 303.053432,257.758485 L305.004615,251.916495 L310.858166,249.964777 C312.209493,249.517165 313.112574,248.266485 313.112574,246.84466 C313.112574,245.422835 312.209493,244.172155 310.858166,243.721252 L305.004615,241.772825 L303.053432,235.930835 C302.605187,234.581417 301.352738,233.679612 299.928901,233.679612 M299.635564,246.84466 C299.737738,246.752505 299.836615,246.653767 299.928901,246.551738 C300.017891,246.653767 300.116768,246.752505 300.222238,246.84466 C300.116768,246.936816 300.017891,247.032262 299.928901,247.137583 C299.836615,247.032262 299.737738,246.936816 299.635564,246.84466" id="Fill-22" fill="#FFFFFF"></path>
                            <path d="M257.080973,315.961165 C253.44228,315.961165 250.489137,318.906845 250.489137,322.543689 C250.489137,326.177243 253.44228,329.126214 257.080973,329.126214 C260.722963,329.126214 263.67281,326.177243 263.67281,322.543689 C263.67281,318.906845 260.722963,315.961165 257.080973,315.961165" id="Fill-24" fill="#FFFFFF"></path>
                            <path d="M316.408163,151.397729 C312.769469,151.397729 309.816327,154.3467 309.816327,157.980253 C309.816327,161.617098 312.769469,164.562778 316.408163,164.562778 C320.050153,164.562778 323,161.617098 323,157.980253 C323,154.3467 320.050153,151.397729 316.408163,151.397729" id="Fill-26" fill="#FFFFFF"></path>
                            <path d="M112.061884,-0.000329126214 C108.419894,-0.000329126214 105.470047,2.94864175 105.470047,6.58219515 C105.470047,10.2190398 108.419894,13.1647194 112.061884,13.1647194 C115.700578,13.1647194 118.65372,10.2190398 118.65372,6.58219515 C118.65372,2.94864175 115.700578,-0.000329126214 112.061884,-0.000329126214" id="Fill-28" fill="#FFFFFF"></path>
                            <path d="M19.7751806,230.389008 C16.1364867,230.389008 13.1833439,233.334687 13.1833439,236.971532 C13.1833439,240.605085 16.1364867,243.554056 19.7751806,243.554056 C23.4171704,243.554056 26.3670173,240.605085 26.3670173,236.971532 C26.3670173,233.334687 23.4171704,230.389008 19.7751806,230.389008" id="Fill-30" fill="#FFFFFF"></path>
                            <path d="M6.59150714,131.650156 C2.95281327,131.650156 -0.000329591837,134.599127 -0.000329591837,138.232681 C-0.000329591837,141.869525 2.95281327,144.815205 6.59150714,144.815205 C10.2334969,144.815205 13.1833439,141.869525 13.1833439,138.232681 C13.1833439,134.599127 10.2334969,131.650156 6.59150714,131.650156" id="Fill-32" fill="#FFFFFF"></path>
                            <path d="M283.44865,43.3205796 L283.280558,43.827434 C282.950966,44.8082301 282.176426,45.5816767 281.194242,45.9075117 L280.68667,46.0786573 L281.194242,46.2465117 C282.176426,46.5723466 282.950966,47.3457932 283.280558,48.3265893 L283.44865,48.8334437 L283.616742,48.3265893 C283.946334,47.3457932 284.720874,46.5723466 285.703058,46.2465117 L286.21063,46.0786573 L285.703058,45.9075117 C284.720874,45.5816767 283.946334,44.8082301 283.616742,43.827434 L283.44865,43.3205796" id="Fill-34" fill="#FFFFFF"></path>
                            <path d="M283.44865,29.6220175 C282.024813,29.6220175 280.772364,30.5238233 280.324119,31.8699495 L277.54566,40.1836777 L269.223466,42.9549204 C267.87214,43.4058233 266.969058,44.6565029 266.969058,46.0783282 C266.969058,47.4968621 267.87214,48.750833 269.223466,49.1984447 L277.548956,51.9696874 L280.324119,60.2834155 C280.772364,61.632833 282.024813,62.5346388 283.44865,62.5346388 C284.872487,62.5346388 286.124936,61.632833 286.576477,60.2834155 L289.348344,51.9696874 L297.673834,49.1984447 C299.02516,48.750833 299.928242,47.4968621 299.928242,46.0783282 C299.928242,44.6565029 299.02516,43.4058233 297.673834,42.9549204 L289.348344,40.1836777 L286.576477,31.8699495 C286.124936,30.5238233 284.872487,29.6220175 283.44865,29.6220175 M283.280558,43.8271049 L283.44865,43.3202505 L283.616742,43.8271049 C283.946334,44.807901 284.720874,45.5813476 285.703058,45.9104738 L286.21063,46.0783282 L285.703058,46.2461825 C284.720874,46.5753087 283.946334,47.3454641 283.616742,48.3262602 L283.44865,48.8364058 L283.280558,48.3262602 C282.950966,47.3454641 282.176426,46.5720175 281.194242,46.2461825 L280.68667,46.0783282 L281.194242,45.9104738 C282.176426,45.5813476 282.950966,44.807901 283.280558,43.8271049" id="Fill-36" fill="#FFFFFF"></path>
                            <path d="M59.3265306,319.786599 L59.1584388,320.293453 C58.8288469,321.27425 58.0543061,322.047696 57.0721224,322.373531 L56.564551,322.544677 L57.0721224,322.712531 C58.0543061,323.038366 58.8288469,323.811813 59.1584388,324.792609 L59.3265306,325.299463 L59.4946224,324.792609 C59.8242143,323.811813 60.5987551,323.038366 61.5809388,322.712531 L62.0885102,322.544677 L61.5809388,322.373531 C60.5987551,322.047696 59.8242143,321.27425 59.4946224,320.293453 L59.3265306,319.786599" id="Fill-38" fill="#FFFFFF"></path>
                            <path d="M59.3265306,306.088037 C57.9026939,306.088037 56.6502449,306.989843 56.1987041,308.335969 L53.4235408,316.649697 L45.1013469,319.42094 C43.7500204,319.871843 42.8469388,321.122522 42.8469388,322.544348 C42.8469388,323.966173 43.7500204,325.216852 45.1013469,325.664464 L53.4235408,328.435707 L56.1987041,336.749435 C56.6502449,338.098852 57.9026939,339.000658 59.3265306,339.000658 C60.7503673,339.000658 62.0028163,338.098852 62.4510612,336.749435 L65.2262245,328.438998 L73.5517143,325.664464 C74.9030408,325.216852 75.8061224,323.966173 75.8061224,322.544348 C75.8061224,321.122522 74.9030408,319.871843 73.5517143,319.42094 L65.2262245,316.649697 L62.4510612,308.335969 C62.0028163,306.989843 60.7503673,306.088037 59.3265306,306.088037 M59.1584388,320.293124 L59.3265306,319.78627 L59.4946224,320.293124 C59.8242143,321.27392 60.5987551,322.047367 61.5809388,322.376493 L62.0885102,322.544348 L61.5809388,322.712202 C60.5987551,323.041328 59.8242143,323.811483 59.4946224,324.79228 L59.3265306,325.302425 L59.1584388,324.79228 C58.8288469,323.811483 58.0543061,323.038037 57.0721224,322.712202 L56.564551,322.544348 L57.0721224,322.376493 C58.0543061,322.047367 58.8288469,321.27392 59.1584388,320.293124" id="Fill-40" fill="#FFFFFF"></path>
                            <path d="M29.6629357,68.8229243 C29.57065,68.9282447 29.4717724,69.0236913 29.369599,69.1158466 C29.4717724,69.2080019 29.57065,69.3067398 29.6629357,69.4087689 C29.7552214,69.3067398 29.8508031,69.2080019 29.9562724,69.1158466 C29.8508031,69.0236913 29.7552214,68.9282447 29.6629357,68.8229243" id="Fill-42" fill="#FFFFFF"></path>
                            <path d="M29.6635949,55.9507981 C28.2397582,55.9507981 26.9840133,56.8526039 26.5357684,58.2020214 L24.5845847,64.0473029 L18.7310337,65.9957301 C17.3830031,66.4433417 16.4799214,67.6940214 16.4799214,69.1158466 C16.4799214,70.5376718 17.3830031,71.7883515 18.7310337,72.2392544 L24.5845847,74.1876816 L26.5357684,80.0296718 C26.9840133,81.3790893 28.2397582,82.2808951 29.6635949,82.2808951 C31.0874316,82.2808951 32.3398806,81.3790893 32.7881255,80.0296718 L34.7393092,74.1876816 L40.5928602,72.2392544 C41.9441867,71.7883515 42.8472684,70.5376718 42.8472684,69.1158466 C42.8472684,67.6940214 41.9441867,66.4433417 40.5928602,65.9957301 L34.7393092,64.0440117 L32.7881255,58.2020214 C32.3398806,56.8526039 31.0874316,55.9507981 29.6635949,55.9507981 M29.3702582,69.1158466 C29.4724316,69.0236913 29.5713092,68.9282447 29.6635949,68.8229243 C29.7525847,68.9282447 29.8514622,69.0236913 29.9569316,69.1158466 C29.8514622,69.2080019 29.7525847,69.3067398 29.6635949,69.4087689 C29.5713092,69.3067398 29.4724316,69.2080019 29.3702582,69.1158466" id="Fill-44" fill="#FFFFFF"></path>
                        </g>
                    </g>
                </g>
            </g>
        </g>
    </g>
</svg>