<?xml version="1.0" encoding="UTF-8"?>
<svg width="40px" height="40px" viewBox="0 0 40 40" version="1.1" xmlns="http://www.w3.org/2000/svg" xmlns:xlink="http://www.w3.org/1999/xlink">
    <!-- Generator: Sketch 53 (72520) - https://sketchapp.com -->
    <title>instagram-icon</title>
    <desc>Created with Sketch.</desc>
    <g id="Page-1" stroke="none" stroke-width="1" fill="none" fill-rule="evenodd">
        <g id="Artboard" transform="translate(-1074.000000, -300.000000)" fill="#FFFFFF" fill-rule="nonzero">
            <g id="instagram-icon" transform="translate(1074.000000, 300.000000)">
                <path d="M19.7647059,9.96078431 C14.2745098,9.96078431 9.7254902,14.4313725 9.7254902,20 C9.7254902,25.5686275 14.1960784,30.0392157 19.7647059,30.0392157 C25.3333333,30.0392157 29.8039216,25.4901961 29.8039216,20 C29.8039216,14.5098039 25.254902,9.96078431 19.7647059,9.96078431 Z M19.7647059,26.4313725 C16.2352941,26.4313725 13.3333333,23.5294118 13.3333333,20 C13.3333333,16.4705882 16.2352941,13.5686275 19.7647059,13.5686275 C23.2941176,13.5686275 26.1960784,16.4705882 26.1960784,20 C26.1960784,23.5294118 23.2941176,26.4313725 19.7647059,26.4313725 Z" id="Shape"></path>
                <circle id="Oval" cx="30.1960784" cy="9.7254902" r="2.2745098"></circle>
                <path d="M36.0784314,3.84313725 C34.0392157,1.7254902 31.1372549,0.62745098 27.8431373,0.62745098 L11.6862745,0.62745098 C4.8627451,0.62745098 0.31372549,5.17647059 0.31372549,12 L0.31372549,28.0784314 C0.31372549,31.4509804 1.41176471,34.3529412 3.60784314,36.4705882 C5.7254902,38.5098039 8.54901961,39.5294118 11.7647059,39.5294118 L27.7647059,39.5294118 C31.1372549,39.5294118 33.9607843,38.4313725 36,36.4705882 C38.1176471,34.4313725 39.2156863,31.5294118 39.2156863,28.1568627 L39.2156863,12 C39.2156863,8.70588235 38.1176471,5.88235294 36.0784314,3.84313725 Z M35.7647059,28.1568627 C35.7647059,30.5882353 34.9019608,32.5490196 33.4901961,33.8823529 C32.0784314,35.2156863 30.1176471,35.9215686 27.7647059,35.9215686 L11.7647059,35.9215686 C9.41176471,35.9215686 7.45098039,35.2156863 6.03921569,33.8823529 C4.62745098,32.4705882 3.92156863,30.5098039 3.92156863,28.0784314 L3.92156863,12 C3.92156863,9.64705882 4.62745098,7.68627451 6.03921569,6.2745098 C7.37254902,4.94117647 9.41176471,4.23529412 11.7647059,4.23529412 L27.9215686,4.23529412 C30.2745098,4.23529412 32.2352941,4.94117647 33.6470588,6.35294118 C34.9803922,7.76470588 35.7647059,9.7254902 35.7647059,12 L35.7647059,28.1568627 L35.7647059,28.1568627 Z" id="Shape"></path>
            </g>
        </g>
    </g>
</svg>