<?xml version="1.0" encoding="UTF-8"?>
<svg width="55px" height="40px" viewBox="0 0 55 40" version="1.1" xmlns="http://www.w3.org/2000/svg" xmlns:xlink="http://www.w3.org/1999/xlink">
    <!-- Generator: Sketch 53 (72520) - https://sketchapp.com -->
    <title>linkedin-icon</title>
    <desc>Created with Sketch.</desc>
    <g id="Page-1" stroke="none" stroke-width="1" fill="none" fill-rule="evenodd">
        <g id="Artboard" transform="translate(-758.000000, -301.000000)" fill="#FFFFFF" fill-rule="nonzero">
            <g id="linkedin-icon" transform="translate(755.000000, 301.000000)">
                <path d="M15.2380952,40 L3.80952381,40 L3.80952381,11.4285714 L15.2380952,11.4285714 L15.2380952,40 Z M57.1428571,40 L45.7142857,40 L45.7142857,24.7371429 C45.7142857,20.76 43.8247619,18.78 40.08,18.78 C37.112381,18.78 35.2304762,19.8885714 34.2857143,22.1085714 C34.2857143,25.7142857 34.2857143,40 34.2857143,40 L22.8571429,40 C22.8571429,40 23.0095238,14.2857143 22.8571429,11.4285714 L31.8780952,11.4285714 L32.5752381,17.1428571 L32.8114286,17.1428571 C35.1542857,14.2857143 38.8990476,12.3485714 44.0342857,12.3485714 C47.9390476,12.3485714 51.0971429,13.1628571 53.5085714,15.2085714 C55.9352381,17.2571429 57.1428571,20.0057143 57.1428571,23.8657143 L57.1428571,40 Z" id="Shape"></path>
                <ellipse id="Oval" cx="9.52380952" cy="4.28571429" rx="5.9047619" ry="4.28571429"></ellipse>
            </g>
        </g>
    </g>
</svg>