<?xml version="1.0" encoding="UTF-8"?>
<svg width="172px" height="164px" viewBox="0 0 172 164" version="1.1" xmlns="http://www.w3.org/2000/svg" xmlns:xlink="http://www.w3.org/1999/xlink">
    <!-- Generator: Sketch 53 (72520) - https://sketchapp.com -->
    <title>iconfinder_Technology_Mix_-_Final-08_998684</title>
    <desc>Created with Sketch.</desc>
    <g id="Page-1" stroke="none" stroke-width="1" fill="none" fill-rule="evenodd">
        <g id="Artboard" transform="translate(-292.000000, -85.000000)" fill="#034184" fill-rule="nonzero">
            <g id="iconfinder_Technology_Mix_-_Final-08_998684" transform="translate(292.000000, 85.000000)">
                <path d="M11.5,14.1 C14.1,14.1 16.2,12 16.2,9.4 C16.2,6.8 14.1,4.7 11.5,4.7 C8.9,4.7 6.8,6.8 6.8,9.4 C6.8,12 8.9,14.1 11.5,14.1 Z M11.5,6.7 C13,6.7 14.2,7.9 14.2,9.4 C14.2,10.9 13,12.1 11.5,12.1 C10,12.1 8.8,10.9 8.8,9.4 C8.8,7.9 10,6.7 11.5,6.7 Z" id="Shape"></path>
                <path d="M22.8,14.1 C25.4,14.1 27.5,12 27.5,9.4 C27.5,6.8 25.4,4.7 22.8,4.7 C20.2,4.7 18.1,6.8 18.1,9.4 C18.1,12 20.2,14.1 22.8,14.1 Z M22.8,6.7 C24.3,6.7 25.5,7.9 25.5,9.4 C25.5,10.9 24.3,12.1 22.8,12.1 C21.3,12.1 20.1,10.9 20.1,9.4 C20.1,7.9 21.3,6.7 22.8,6.7 Z" id="Shape"></path>
                <path d="M34.1,14.1 C36.7,14.1 38.8,12 38.8,9.4 C38.8,6.8 36.7,4.7 34.1,4.7 C31.5,4.7 29.4,6.8 29.4,9.4 C29.4,12 31.5,14.1 34.1,14.1 Z M34.1,6.7 C35.6,6.7 36.8,7.9 36.8,9.4 C36.8,10.9 35.6,12.1 34.1,12.1 C32.6,12.1 31.4,10.9 31.4,9.4 C31.4,7.9 32.6,6.7 34.1,6.7 Z" id="Shape"></path>
                <path d="M53.1,136 L16.1,136 C15.5,136 15.1,136.4 15.1,137 C15.1,137.6 15.5,138 16.1,138 L53.1,138 C53.7,138 54.1,137.6 54.1,137 C54.1,136.4 53.7,136 53.1,136 Z" id="Path"></path>
                <path d="M53.1,141 L16.1,141 C15.5,141 15.1,141.4 15.1,142 C15.1,142.6 15.5,143 16.1,143 L53.1,143 C53.7,143 54.1,142.6 54.1,142 C54.1,141.4 53.7,141 53.1,141 Z" id="Path"></path>
                <path d="M53.1,146 L16.1,146 C15.5,146 15.1,146.4 15.1,147 C15.1,147.6 15.5,148 16.1,148 L53.1,148 C53.7,148 54.1,147.6 54.1,147 C54.1,146.4 53.7,146 53.1,146 Z" id="Path"></path>
                <path d="M53.1,151 L16.1,151 C15.5,151 15.1,151.4 15.1,152 C15.1,152.6 15.5,153 16.1,153 L53.1,153 C53.7,153 54.1,152.6 54.1,152 C54.1,151.4 53.7,151 53.1,151 Z" id="Path"></path>
                <path d="M105.1,136 L68.1,136 C67.5,136 67.1,136.4 67.1,137 C67.1,137.6 67.5,138 68.1,138 L105.1,138 C105.7,138 106.1,137.6 106.1,137 C106.1,136.4 105.7,136 105.1,136 Z" id="Path"></path>
                <path d="M105.1,141 L68.1,141 C67.5,141 67.1,141.4 67.1,142 C67.1,142.6 67.5,143 68.1,143 L105.1,143 C105.7,143 106.1,142.6 106.1,142 C106.1,141.4 105.7,141 105.1,141 Z" id="Path"></path>
                <path d="M105.1,146 L68.1,146 C67.5,146 67.1,146.4 67.1,147 C67.1,147.6 67.5,148 68.1,148 L105.1,148 C105.7,148 106.1,147.6 106.1,147 C106.1,146.4 105.7,146 105.1,146 Z" id="Path"></path>
                <path d="M105.1,151 L68.1,151 C67.5,151 67.1,151.4 67.1,152 C67.1,152.6 67.5,153 68.1,153 L105.1,153 C105.7,153 106.1,152.6 106.1,152 C106.1,151.4 105.7,151 105.1,151 Z" id="Path"></path>
                <path d="M156.1,136 L119.1,136 C118.5,136 118.1,136.4 118.1,137 C118.1,137.6 118.5,138 119.1,138 L156.1,138 C156.7,138 157.1,137.6 157.1,137 C157.1,136.4 156.7,136 156.1,136 Z" id="Path"></path>
                <path d="M156.1,141 L119.1,141 C118.5,141 118.1,141.4 118.1,142 C118.1,142.6 118.5,143 119.1,143 L156.1,143 C156.7,143 157.1,142.6 157.1,142 C157.1,141.4 156.7,141 156.1,141 Z" id="Path"></path>
                <path d="M156.1,146 L119.1,146 C118.5,146 118.1,146.4 118.1,147 C118.1,147.6 118.5,148 119.1,148 L156.1,148 C156.7,148 157.1,147.6 157.1,147 C157.1,146.4 156.7,146 156.1,146 Z" id="Path"></path>
                <path d="M156.1,151 L119.1,151 C118.5,151 118.1,151.4 118.1,152 C118.1,152.6 118.5,153 119.1,153 L156.1,153 C156.7,153 157.1,152.6 157.1,152 C157.1,151.4 156.7,151 156.1,151 Z" id="Path"></path>
                <path d="M171,59.6 L171,18.7 L171,0 L1,0 L1,18.7 L1,59.3 C1,59.5 0.7,59.7 0.7,60 C0.7,60.3 1,60.6 1,60.7 L1,164 L171,164 L171,60.4 C171,60.3 171.1,60.1 171.1,60 C171.1,59.9 171,59.7 171,59.6 Z M168,161 L4,161 L4,61 L66.6361446,61 C67.426506,71.0990099 75.9228916,79.1188119 86.1975904,79.1188119 C96.4722892,79.1188119 104.968675,71.0990099 105.759036,61 L168,61 L168,161 Z M86.2,63.4 C91.6163934,63.4 96.3901639,67.347541 97.4,72.6721311 C94.4622951,75.4262295 90.5147541,77.0786885 86.2,77.0786885 C81.8852459,77.0786885 77.9377049,75.4262295 75,72.6721311 C76.0098361,67.347541 80.7836066,63.4 86.2,63.4 Z M82.4,55.1 C82.4,52.9625 84.1416667,51.3 86.2,51.3 C88.3375,51.3 90,53.0416667 90,55.1 C90,57.1583333 88.2583333,58.9 86.2,58.9 C84.1416667,58.9 82.4,57.1583333 82.4,55.1 Z M89.5988827,60.8162011 C91.3927374,59.6832402 92.6201117,57.6061453 92.6201117,55.3402235 C92.6201117,51.752514 89.6932961,48.9201117 86.2,48.9201117 C82.6122905,48.9201117 79.7798883,51.8469274 79.7798883,55.3402235 C79.7798883,57.7005587 81.0072626,59.6832402 82.8011173,60.8162011 C78.1748603,62.0435754 74.4927374,65.5368715 73.1709497,70.1631285 C70.7162011,67.2363128 69.3,63.4597765 69.3,59.4 C69.3,50.0530726 76.8530726,42.5 86.2,42.5 C95.5469274,42.5 103.1,50.0530726 103.1,59.4 C103.1,63.4597765 101.683799,67.2363128 99.2290503,70.1631285 C97.9072626,65.5368715 94.2251397,61.949162 89.5988827,60.8162011 Z M168,58 L105.857831,58 C105.660241,47.47 96.9662651,38.89 86.1975904,38.89 C75.4289157,38.89 66.7349398,47.47 66.5373494,58 L4,58 L4,19 L168,19 L168,58 Z M167.999999,15.819277 L4,15.819277 L4,3 L167.999999,3 L167.999999,15.819277 Z" id="Shape"></path>
                <path d="M14,128 L54,128 L54,88 L14,88 L14,128 Z M17,91 L51,91 L51,125 L17,125 L17,91 Z" id="Shape"></path>
                <path d="M66,128 L106,128 L106,88 L66,88 L66,128 Z M69,91 L103,91 L103,125 L69,125 L69,91 Z" id="Shape"></path>
                <path d="M157,88 L117,88 L117,128 L157,128 L157,88 Z M154,125 L120,125 L120,91 L154,91 L154,125 Z" id="Shape"></path>
            </g>
        </g>
    </g>
</svg>